<svg fill="none" height="23" viewBox="0 0 20 23" width="20" xmlns="http://www.w3.org/2000/svg">
    <path clip-rule="evenodd" d="M18.521 11.1017L2.64292 2.3944C2.16699 2.13399 1.58902 2.14385 1.12225 2.42034C0.65548 2.69683 0.369101 3.19896 0.368774 3.74147V21.1561C0.369101 21.6986 0.65548 22.2008 1.12225 22.4772C1.58902 22.7537 2.16699 22.7636 2.64292 22.5032L18.521 13.7959C19.0127 13.526 19.3183 13.0097 19.3183 12.4488C19.3183 11.8879 19.0127 11.3716 18.521 11.1017ZM1.90536 21.1561V13.4732H8.5639C8.98821 13.4732 9.33219 13.1292 9.33219 12.7049C9.33219 12.2806 8.98821 11.9366 8.5639 11.9366H1.90536V3.74147L17.7834 12.4488L1.90536 21.1561Z"
        fill="#543B3A"
        fill-rule="evenodd" />
    <circle cx="9.5" cy="5.5" fill="#FD4A40" r="5.5" />
</svg>
